<?xml version="1.0" encoding="UTF-8" standalone="no" ?>
<!DOCTYPE svg PUBLIC "-//W3C//DTD SVG 1.1//EN" "http://www.w3.org/Graphics/SVG/1.1/DTD/svg11.dtd">
<svg xmlns="http://www.w3.org/2000/svg" xmlns:xlink="http://www.w3.org/1999/xlink" version="1.1" width="18" height="14" viewBox="0 0 18 14" xml:space="preserve">
<desc>Created with Fabric.js 5.2.4</desc>
<defs>
</defs>
<g transform="matrix(0.62 0 0 0.92 6.3 2.52)" id="Line 71" >
<line vector-effect="non-scaling-stroke" x1="-8.7692" y1="0" x2="8.7692" y2="0" />
</g>
<g transform="matrix(0.6 0 0 0.92 11.91 7)" id="Line 72" >
<line vector-effect="non-scaling-stroke" x1="-8.7692" y1="0" x2="8.7692" y2="0" />
</g>
<g transform="matrix(0.37 0 0 0.92 4.1 11.5)" id="Line 73" >
<line vector-effect="non-scaling-stroke" x1="-8.7692" y1="0" x2="8.7692" y2="0" />
</g>
<g transform="matrix(0.92 0 0 0.92 13.24 2.52)" id="Ellipse 21" >
<circle style="fill-opacity: 0" vector-effect="non-scaling-stroke" cx="0" cy="0" r="1.61538" />
</g>
<g transform="matrix(0.92 0 0 0.92 5.17 6.99)" id="Ellipse 22" >
<circle style="fill-opacity: 0" vector-effect="non-scaling-stroke" cx="0" cy="0" r="1.61538" />
</g>
<g transform="matrix(0.92 0 0 0.92 8.97 11.48)" id="Ellipse 23" >
<circle style="fill-opacity: 0" vector-effect="non-scaling-stroke" cx="0" cy="0" r="1.61538" />
</g>
<g transform="matrix(0.14 0 0 0.92 15.88 2.57)" >
<line vector-effect="non-scaling-stroke" x1="-8.7692" y1="0" x2="8.7692" y2="0" />
</g>
<g transform="matrix(0.15 0 0 0.92 2.18 7)" >
<line vector-effect="non-scaling-stroke" x1="-8.7692" y1="0" x2="8.7692" y2="0" />
</g>
<g transform="matrix(0.39 0 0 0.92 13.8 11.5)" >
<line vector-effect="non-scaling-stroke" x1="-8.7692" y1="0" x2="8.7692" y2="0" />
</g>
</svg>