<svg width="120" height="120" viewBox="0 0 120 120" fill="none" xmlns="http://www.w3.org/2000/svg">
<g filter="url(#filter0_b_452_272533)">
<circle cx="60" cy="60" r="60" fill="white" fill-opacity="0.9"/>
<circle cx="60" cy="60" r="58" stroke="url(#paint0_linear_452_272533)" stroke-width="4"/>
</g>
<path d="M50.278 66V53.4H54.688C55.672 53.4 56.488 53.568 57.136 53.904C57.784 54.228 58.264 54.678 58.576 55.254C58.9 55.818 59.062 56.46 59.062 57.18C59.062 57.864 58.906 58.494 58.594 59.07C58.294 59.634 57.82 60.084 57.172 60.42C56.524 60.756 55.696 60.924 54.688 60.924H52.186V66H50.278ZM52.186 59.358H54.598C55.498 59.358 56.14 59.166 56.524 58.782C56.92 58.386 57.118 57.852 57.118 57.18C57.118 56.484 56.92 55.944 56.524 55.56C56.14 55.164 55.498 54.966 54.598 54.966H52.186V59.358ZM60.9479 66V53.4H62.8559V64.488H68.5799V66H60.9479ZM69.8235 66L74.4675 53.4H76.5555L81.1635 66H79.1475L78.0675 62.922L72.9195 62.922L71.8395 66H69.8235ZM73.4595 61.41L77.5275 61.41L75.4935 55.668L73.4595 61.41ZM84.7359 66V61.356L80.5599 53.4H82.7199L85.6899 59.484L88.6419 53.4H90.7839L86.6439 61.356V66H84.7359Z" fill="#3D3836"/>
<path d="M38 60L26 68.6603L26 51.3397L38 60Z" fill="#3D3836"/>
<defs>
<filter id="filter0_b_452_272533" x="-20" y="-20" width="160" height="160" filterUnits="userSpaceOnUse" color-interpolation-filters="sRGB">
<feFlood flood-opacity="0" result="BackgroundImageFix"/>
<feGaussianBlur in="BackgroundImageFix" stdDeviation="10"/>
<feComposite in2="SourceAlpha" operator="in" result="effect1_backgroundBlur_452_272533"/>
<feBlend mode="normal" in="SourceGraphic" in2="effect1_backgroundBlur_452_272533" result="shape"/>
</filter>
<linearGradient id="paint0_linear_452_272533" x1="-0.00322909" y1="60" x2="120.003" y2="60" gradientUnits="userSpaceOnUse">
<stop stop-color="var(--stop-color-1, #7A8CF0)"/>
<stop offset="1" stop-color="var(--stop-color-2, #1CE19F)"/>
</linearGradient>
</defs>
</svg>
